<svg xmlns="http://www.w3.org/2000/svg" xmlns:xlink="http://www.w3.org/1999/xlink" viewBox="0 0 29.79 29.79"><defs><style>.cls-1{isolation:isolate;}.cls-2{fill:#ff47ae;}.cls-3{opacity:0.6;mix-blend-mode:multiply;}.cls-4{fill:url(#radial-gradient);}.cls-11,.cls-5,.cls-7,.cls-9{mix-blend-mode:screen;}.cls-5{fill:url(#radial-gradient-2);}.cls-6{fill:url(#radial-gradient-3);}.cls-7{fill:url(#radial-gradient-4);}.cls-8{fill:url(#radial-gradient-5);}.cls-9{fill:url(#radial-gradient-6);}.cls-10{fill:url(#radial-gradient-7);}.cls-11{fill:url(#radial-gradient-8);}</style><radialGradient id="radial-gradient" cx="7.45" cy="8.67" r="6.18" gradientUnits="userSpaceOnUse"><stop offset="0.66" stop-color="#e31ea1"/><stop offset="0.73" stop-color="#eb61bd"/><stop offset="0.8" stop-color="#f29ad5"/><stop offset="0.86" stop-color="#f8c5e7"/><stop offset="0.92" stop-color="#fce5f4"/><stop offset="0.97" stop-color="#fef8fc"/><stop offset="1" stop-color="#fff"/></radialGradient><radialGradient id="radial-gradient-2" cx="7.41" cy="7.89" r="6.2" gradientUnits="userSpaceOnUse"><stop offset="0.61"/><stop offset="0.65" stop-color="#0a0a0a"/><stop offset="0.7" stop-color="#262626"/><stop offset="0.78" stop-color="#535353"/><stop offset="0.86" stop-color="#919191"/><stop offset="0.96" stop-color="#e0e0e0"/><stop offset="1" stop-color="#fff"/></radialGradient><radialGradient id="radial-gradient-3" cx="22.34" cy="8.67" r="6.18" xlink:href="#radial-gradient"/><radialGradient id="radial-gradient-4" cx="22.31" cy="7.89" r="6.2" xlink:href="#radial-gradient-2"/><radialGradient id="radial-gradient-5" cx="7.45" cy="23.56" r="6.18" xlink:href="#radial-gradient"/><radialGradient id="radial-gradient-6" cx="7.41" cy="22.78" r="6.2" xlink:href="#radial-gradient-2"/><radialGradient id="radial-gradient-7" cx="22.34" cy="23.56" r="6.18" xlink:href="#radial-gradient"/><radialGradient id="radial-gradient-8" cx="22.31" cy="22.78" r="6.2" xlink:href="#radial-gradient-2"/></defs><title>pink_lego</title><g class="cls-1"><g id="Layer_2" data-name="Layer 2"><g id="Layer_1-2" data-name="Layer 1"><rect class="cls-2" width="14.89" height="14.89"/><g class="cls-3"><path class="cls-4" d="M13.62,8.67A6.18,6.18,0,1,1,7.45,2.49,6.17,6.17,0,0,1,13.62,8.67Z"/></g><path class="cls-2" d="M12,7.46A4.51,4.51,0,1,1,7.45,3,4.51,4.51,0,0,1,12,7.46Z"/><path class="cls-5" d="M12,7.46A4.51,4.51,0,1,1,7.45,3,4.51,4.51,0,0,1,12,7.46Z"/><rect class="cls-2" x="14.89" width="14.9" height="14.89"/><g class="cls-3"><path class="cls-6" d="M28.52,8.67a6.18,6.18,0,1,1-6.18-6.18A6.18,6.18,0,0,1,28.52,8.67Z"/></g><path class="cls-2" d="M26.85,7.46A4.51,4.51,0,1,1,22.34,3,4.51,4.51,0,0,1,26.85,7.46Z"/><path class="cls-7" d="M26.85,7.46A4.51,4.51,0,1,1,22.34,3,4.51,4.51,0,0,1,26.85,7.46Z"/><rect class="cls-2" y="14.89" width="14.89" height="14.9"/><g class="cls-3"><path class="cls-8" d="M13.62,23.56a6.18,6.18,0,1,1-6.17-6.18A6.18,6.18,0,0,1,13.62,23.56Z"/></g><path class="cls-2" d="M12,22.36a4.51,4.51,0,1,1-4.5-4.5A4.5,4.5,0,0,1,12,22.36Z"/><path class="cls-9" d="M12,22.36a4.51,4.51,0,1,1-4.5-4.5A4.5,4.5,0,0,1,12,22.36Z"/><rect class="cls-2" x="14.89" y="14.89" width="14.9" height="14.9"/><g class="cls-3"><path class="cls-10" d="M28.52,23.56a6.18,6.18,0,1,1-6.18-6.18A6.18,6.18,0,0,1,28.52,23.56Z"/></g><path class="cls-2" d="M26.85,22.36a4.51,4.51,0,1,1-4.51-4.5A4.5,4.5,0,0,1,26.85,22.36Z"/><path class="cls-11" d="M26.85,22.36a4.51,4.51,0,1,1-4.51-4.5A4.5,4.5,0,0,1,26.85,22.36Z"/></g></g></g></svg>